<?xml version="1.0" standalone="no"?><!DOCTYPE svg PUBLIC "-//W3C//DTD SVG 1.1//EN" "http://www.w3.org/Graphics/SVG/1.1/DTD/svg11.dtd"><svg t="1563329133404" class="icon" viewBox="0 0 1024 1024" version="1.1" xmlns="http://www.w3.org/2000/svg" p-id="3429" xmlns:xlink="http://www.w3.org/1999/xlink" width="200" height="200"><defs><style type="text/css"></style></defs><path d="M772.25908203 445.82363281H362.77226562l0.09228516-156.94453125c0-83.4609375 58.96318359-149.90273438 138.94453125-149.90273437 80.84091797 0 138.12363281 63.58271484 138.12363281 149.30771484v77.36044922c0 20.79228516 17.74775391 38.35546875 39.08320313 38.35546875 14.92998047 0 32.71816406-10.69453125 41.09589844-29.35546875 0 0 3.11044922-7.54453125 3.11044921-10.39042969l0.0131836-76.40683594C723.24863281 161.39726562 627.70273438 62 505.60771484 62c-121.65908203 0-218.32910156 99.09228516-220.09042968 222.88183594-0.27773438 5.4140625-0.50273437 108-0.60820313 160.94179687h-53.28544922c-39.38818359 0-68.16181641 27.675-68.1618164 67.0631836v376.13408203c0 39.38818359 28.77363281 72.96591797 68.1618164 72.96591797h540.62226563c39.38818359 0 79.45136719-33.57773437 79.45136719-72.96679688V512.88769531c0.01318359-39.38818359-40.05-67.06318359-79.4381836-67.06318359zM560.65361328 727.97363281c-4.30224609 2.64726563-0.11953125 7.78183594-0.11953125 7.78183594v23.49316406c0 16.63681641-18.38408203 30.67910156-35.17998047 30.67910157h-23.46591797c-16.57089844 0-20.76591797-13.5-20.76591796-30.67910157v-25.58408203s-2.38183594-4.30136719-5.69179688-7.46455078c-16.74228516-14.57226563-26.66865234-31.42089844-26.66865234-49.08955078 0-35.23271484 30.70546875-64.99863281 67.7109375-64.99863281 35.47177734 0 66.05859375 29.15771484 66.05859375 64.99863281-0.0140625 18.97910156-0.26542969 38.36865234-21.87861328 50.86230469z" p-id="3430"></path></svg>