<?xml version="1.0" standalone="no"?><!DOCTYPE svg PUBLIC "-//W3C//DTD SVG 1.1//EN" "http://www.w3.org/Graphics/SVG/1.1/DTD/svg11.dtd"><svg t="1563329176278" class="icon" viewBox="0 0 1236 1024" version="1.1" xmlns="http://www.w3.org/2000/svg" p-id="4758" xmlns:xlink="http://www.w3.org/1999/xlink" width="241.40625" height="200"><defs><style type="text/css"></style></defs><path d="M1128.553552 513.667019c0 281.846921-228.48606 510.332981-510.3353 510.332981S107.882951 795.51394 107.882951 513.667019c0-281.848081 228.4849-510.334141 510.334141-510.33414S1128.553552 231.818939 1128.553552 513.667019z m-192.160814 31.459916c0-55.36082-14.447501-109.896831-41.782211-157.710241-26.486699-46.329682-64.526526-85.589902-110.015158-113.541768-19.876625-12.213208-45.894656-6.002198-58.109024 13.875587s-6.002198 45.893496 13.876748 58.107863c69.843123 42.919078 111.539489 117.411759 111.539488 199.267399 0 128.853521-104.829649 233.68781-233.685489 233.68781s-233.68549-104.834289-233.68549-233.68781c0-77.753635 38.527057-150.204594 103.060543-193.803473 19.333712-13.061219 24.415975-39.321704 11.355917-58.653096-13.061219-19.334873-39.322864-24.420616-58.654256-11.354757-87.819555 59.331737-140.25004 157.953856-140.250041 263.811326 0 175.443058 142.731428 318.175646 318.173327 318.175646 175.441898 0.00232 318.175646-142.730268 318.175646-318.174486z m-275.586028-11.476564V206.274216c0-23.330151-18.913767-42.243918-42.245078-42.243918s-42.243918 18.912607-42.243918 42.243918v327.376155c0 23.331311 18.912607 42.243918 42.243918 42.243918s42.245078-18.912607 42.245078-42.243918z" p-id="4759"></path></svg>