<?xml version="1.0" standalone="no"?><!DOCTYPE svg PUBLIC "-//W3C//DTD SVG 1.1//EN" "http://www.w3.org/Graphics/SVG/1.1/DTD/svg11.dtd"><svg t="1563329083792" class="icon" viewBox="0 0 1024 1024" version="1.1" xmlns="http://www.w3.org/2000/svg" p-id="2703" xmlns:xlink="http://www.w3.org/1999/xlink" width="200" height="200"><defs><style type="text/css"></style></defs><path d="M896.034133 748.544a298.222933 298.222933 0 0 0-68.3008-93.149867c-58.641067-54.510933-136.942933-85.777067-214.971733-85.777066h-133.256533c-78.0288 0-156.330667 31.266133-214.971734 85.777066a300.1344 300.1344 0 0 0-68.3008 93.149867A267.946667 267.946667 0 0 0 170.666667 862.754133 92.945067 92.945067 0 0 0 263.509333 955.733333h565.248c51.268267 0 92.842667-41.642667 92.842667-92.9792a267.946667 267.946667 0 0 0-25.565867-114.210133zM546.133333 555.4176c124.757333 0 226.133333-101.6832 226.133334-226.440533C772.266667 204.253867 670.890667 102.4 546.133333 102.4S320 204.0832 320 328.8064c0 124.757333 101.376 226.6112 226.133333 226.6112z" p-id="2704"></path></svg>